<svg width="170" height="21" viewBox="0 0 170 21" fill="none" xmlns="http://www.w3.org/2000/svg">
<g clip-path="url(#clip0_1_27)">
<path d="M10.575 20.9428C9.06831 20.9428 7.67318 20.6857 6.38967 20.1714C5.10615 19.638 3.98075 18.9048 3.01347 17.9714C2.06479 17.0191 1.32072 15.9047 0.781269 14.6286C0.260423 13.3524 0 11.9714 0 10.4857C0 8.98095 0.260423 7.6 0.781269 6.34285C1.32072 5.06666 2.06479 3.9619 3.01347 3.02856C3.98075 2.09523 5.09685 1.3619 6.36177 0.828563C7.64528 0.29523 9.0311 0.0285645 10.5192 0.0285645C12.0817 0.0285645 13.4862 0.285707 14.7325 0.799993C15.9788 1.29523 17.0764 1.99047 18.025 2.88571L14.6767 6.31428C14.2116 5.78095 13.635 5.36189 12.9468 5.05713C12.2585 4.75237 11.4494 4.59999 10.5192 4.59999C9.7194 4.59999 8.98459 4.73332 8.31493 5C7.66388 5.26666 7.09653 5.66666 6.61289 6.19999C6.12924 6.71427 5.74791 7.33332 5.46888 8.05714C5.20846 8.78094 5.07825 9.5905 5.07825 10.4857C5.07825 11.3809 5.20846 12.1905 5.46888 12.9143C5.74791 13.6381 6.12924 14.2666 6.61289 14.8C7.09653 15.3142 7.66388 15.7143 8.31493 16C8.98459 16.2667 9.7194 16.4 10.5192 16.4C11.4494 16.4 12.2678 16.2571 12.9747 15.9714C13.6815 15.6667 14.2861 15.2381 14.7883 14.6857L18.1367 18.1143C17.1693 19.0095 16.0719 19.7048 14.8441 20.2C13.635 20.6952 12.212 20.9428 10.575 20.9428Z" fill="black"/>
<path d="M18.3544 20.6285L26.0276 0.371338H30.8547L38.4441 20.6285H33.2264L27.5064 3.59991H29.32L23.4606 20.6285H18.3544Z" fill="black"/>
<path d="M40.2962 20.6285V0.371338H45.2907V20.6285H40.2962ZM44.2583 20.6285V16.2285H53.801V20.6285H44.2583Z" fill="black"/>
<path d="M56.1276 20.6285V0.371338H61.1222V20.6285H56.1276Z" fill="black"/>
<path d="M64.6291 20.6285V0.371338H69.6236V20.6285H64.6291ZM68.5912 13.057V8.74277H78.385V13.057H68.5912ZM68.5912 4.68562V0.371338H78.8314V4.68562H68.5912Z" fill="black"/>
<path d="M90.8498 21C89.3245 21 87.9201 20.7333 86.6365 20.2C85.3531 19.6667 84.2276 18.9238 83.2604 17.9714C82.3117 17.0191 81.5676 15.9047 81.0281 14.6286C80.4887 13.3334 80.219 11.9429 80.219 10.4571C80.219 8.97143 80.4794 7.6 81.0002 6.34286C81.5397 5.06667 82.2838 3.95238 83.2325 3C84.1811 2.04761 85.2973 1.31428 86.5808 0.800002C87.8643 0.266667 89.2687 0 90.794 0C92.3194 0 93.7239 0.266667 95.0075 0.800002C96.2905 1.31428 97.4072 2.04761 98.3558 3C99.3045 3.95238 100.039 5.06667 100.56 6.34286C101.099 7.61905 101.369 9 101.369 10.4857C101.369 11.9714 101.099 13.3524 100.56 14.6286C100.039 15.9047 99.3045 17.0286 98.3558 18C97.4072 18.9524 96.2905 19.6952 95.0075 20.2285C93.7424 20.7428 92.3566 21 90.8498 21ZM90.794 16.4286C91.9101 16.4286 92.8774 16.181 93.696 15.6858C94.5144 15.1904 95.1465 14.4952 95.5936 13.6C96.0397 12.7048 96.2632 11.6571 96.2632 10.4571C96.2632 9.58096 96.1327 8.78095 95.8725 8.05715C95.6302 7.33333 95.2677 6.71428 94.784 6.2C94.3003 5.66667 93.7238 5.25714 93.0542 4.97143C92.3845 4.68571 91.6312 4.54286 90.794 4.54286C89.6779 4.54286 88.7106 4.79048 87.8922 5.28572C87.0738 5.7619 86.4413 6.44762 85.9949 7.34286C85.5484 8.2381 85.3252 9.2762 85.3252 10.4571C85.3252 11.3714 85.4461 12.2 85.6879 12.9429C85.9483 13.6667 86.3203 14.2953 86.804 14.8286C87.2876 15.3429 87.8643 15.7428 88.534 16.0285C89.2036 16.2952 89.957 16.4286 90.794 16.4286Z" fill="black"/>
<path d="M107.829 12.4285V8.77134H111.596C112.414 8.77134 113.038 8.57133 113.465 8.17134C113.912 7.75229 114.135 7.19039 114.135 6.48563C114.135 5.79991 113.912 5.24753 113.465 4.82848C113.038 4.39039 112.414 4.17134 111.596 4.17134H107.829V0.371338H112.294C113.633 0.371338 114.804 0.628481 115.809 1.14277C116.832 1.65706 117.632 2.36182 118.209 3.25706C118.786 4.15229 119.074 5.19991 119.074 6.39991C119.074 7.5999 118.776 8.65705 118.181 9.57133C117.604 10.4666 116.795 11.1713 115.753 11.6856C114.711 12.1809 113.493 12.4285 112.099 12.4285H107.829ZM103.867 20.6285V0.371338H108.862V20.6285H103.867ZM114.582 20.6285L108.834 11.9428L113.326 10.8285L120.357 20.6285H114.582Z" fill="black"/>
<path d="M121.988 20.6285V0.371338H125.475L126.982 4.51419V20.6285H121.988ZM135.632 20.6285L124.08 5.59991L125.475 0.371338L137.055 15.3999L135.632 20.6285ZM135.632 20.6285L134.348 16.3713V0.371338H139.343V20.6285H135.632Z" fill="black"/>
<path d="M142.859 20.6285V0.371338H147.854V20.6285H142.859Z" fill="black"/>
<path d="M149.91 20.6285L157.583 0.371338H162.41L170 20.6285H164.783L159.062 3.59991H160.876L155.017 20.6285H149.91Z" fill="black"/>
</g>
<defs>
<clipPath id="clip0_1_27">
<rect width="170" height="21" fill="white"/>
</clipPath>
</defs>
</svg>
